<svg width="139" height="40" viewBox="0 0 139 40" fill="none" xmlns="http://www.w3.org/2000/svg">
<path d="M38.5016 11.5352C38.5016 11.1533 38.3303 10.9624 37.9879 10.9624H33.4401C32.531 10.9624 31.9241 10.9978 31.6197 11.0661C30.1989 11.3891 29.4885 12.1293 29.4885 13.2891V19.2484C29.4885 19.6256 29.6576 19.8142 29.9959 19.8142H30.423C30.7656 19.8142 30.9389 19.6256 30.9389 19.2484V13.2891C30.9389 12.8153 31.2751 12.5088 31.9474 12.3697C32.2159 12.3155 32.7085 12.2872 33.4274 12.2872H37.9879C38.3303 12.2872 38.5016 12.0962 38.5016 11.7144V11.5352ZM48.2885 17.5983C48.2885 19.0387 47.2969 19.76 45.3158 19.76H41.0218V21.1767C41.0218 21.5539 40.8527 21.7425 40.5144 21.7425H40.155C39.8166 21.7425 39.6475 21.5539 39.6475 21.1767V14.9181C39.6475 14.0718 40.0049 13.4871 40.7195 13.1641C41.1909 12.952 41.8801 12.8459 42.7872 12.8459H44.9817C47.187 12.8459 48.2885 13.5296 48.2885 14.8968V17.5983ZM46.8952 17.6195V14.9181C46.8952 14.5503 46.6394 14.3099 46.1277 14.199C45.912 14.1542 45.5336 14.1307 44.9924 14.1307H42.8485C41.6306 14.1307 41.0218 14.4042 41.0218 14.9533V18.4823H45.3158C46.3687 18.4823 46.8952 18.1948 46.8952 17.6195ZM58.5151 17.6525C58.5151 18.4587 58.1472 19.0504 57.4136 19.4276C56.9125 19.6845 56.2635 19.8142 55.4622 19.8142H53.1766C51.7008 19.8142 50.7262 19.4063 50.2462 18.5907C50.0729 18.2961 49.9862 17.9849 49.9862 17.6525V15.083C49.9862 14.5173 50.223 14.027 50.6987 13.6121C51.2802 13.1005 52.1047 12.8459 53.1702 12.8459H55.4622C57.4982 12.8459 58.5151 13.5861 58.5151 15.0689V17.6525ZM57.1155 17.6525V14.9676C57.1155 14.4136 56.5509 14.1377 55.4242 14.1377H53.1871C52.7834 14.1377 52.4176 14.1919 52.092 14.3027C51.6037 14.4701 51.3605 14.7295 51.3605 15.083V17.6525C51.3605 17.992 51.6079 18.2371 52.1047 18.3833C52.426 18.48 52.7897 18.5295 53.1936 18.5295H55.4304C55.7856 18.5295 56.1217 18.4753 56.4411 18.3644C56.8914 18.2065 57.1155 17.9708 57.1155 17.6525ZM68.8474 19.5879C68.8474 20.3893 68.3929 20.9764 67.4837 21.3488C66.8494 21.6105 66.101 21.7425 65.2426 21.7425H64.6654C64.3229 21.7425 64.1516 21.5539 64.1516 21.1767V21.0235C64.1516 20.6463 64.3229 20.4578 64.6654 20.4578H65.6634C65.9066 20.4578 66.247 20.3846 66.6845 20.2361C67.1814 20.0712 67.4287 19.9108 67.4287 19.76H63.6569C62.7731 19.76 62.0417 19.635 61.4645 19.3875C60.6251 19.0268 60.2064 18.4328 60.2064 17.6054V15.0218C60.2064 14.2886 60.5448 13.7275 61.2213 13.3363C61.788 13.0086 62.4772 12.8459 63.2913 12.8459H65.3166C66.1835 12.8459 66.9255 12.9803 67.5409 13.2467C68.4119 13.6238 68.8474 14.2203 68.8474 15.0359V19.5879ZM67.4542 18.4823V15.0971C67.4542 14.7483 67.1963 14.4842 66.6803 14.3099C66.3252 14.1896 65.9446 14.1307 65.5408 14.1307H63.3652C62.862 14.1307 62.4962 14.1613 62.2679 14.2203C61.8091 14.3404 61.5807 14.5951 61.5807 14.9864V17.5842C61.5807 18.1829 62.2616 18.4823 63.6252 18.4823H67.4542ZM78.5455 19.3404C78.5455 19.6492 78.4059 19.8024 78.1248 19.8024H77.6597C77.3785 19.8024 77.2389 19.6492 77.2389 19.3404V16.8534H71.7122V19.3404C71.7122 19.6492 71.5727 19.8024 71.2915 19.8024H70.8137C70.5367 19.8024 70.3994 19.6492 70.3994 19.3404V13.2113C70.3994 12.9025 70.5367 12.7492 70.8137 12.7492H71.2915C71.5727 12.7492 71.7122 12.9025 71.7122 13.2113V15.637H77.2389V13.2113C77.2389 12.9025 77.3785 12.7492 77.6597 12.7492H78.1248C78.4059 12.7492 78.5455 12.9025 78.5455 13.2113V19.3404ZM88.7869 16.4502C88.7869 16.8746 88.658 17.0868 88.4021 17.0868H81.5646C81.5646 18.0485 82.1587 18.5295 83.3491 18.5295H84.3766C84.7149 18.5295 84.884 18.7204 84.884 19.1023V19.2414C84.884 19.6232 84.7149 19.8142 84.3766 19.8142H83.497C82.6175 19.8142 81.8987 19.6845 81.3406 19.4276C80.5435 19.0598 80.1459 18.454 80.1459 17.6101V15.0476C80.1459 14.2438 80.5413 13.6474 81.33 13.2608C81.9029 12.9803 82.607 12.8388 83.4421 12.8388H86.0109C86.7065 12.8388 87.3028 12.9709 87.8017 13.2326C88.4592 13.5791 88.7869 14.0906 88.7869 14.7718V16.4502ZM87.4486 15.7548V14.8968C87.4486 14.6352 87.1844 14.4324 86.6557 14.2886C86.2837 14.1872 85.9285 14.1377 85.5902 14.1377H83.5965C82.2117 14.1377 81.5202 14.4089 81.5202 14.9533V15.7548H87.4486ZM98.4046 19.3404C98.4046 19.6492 98.265 19.8024 97.984 19.8024H97.5188C97.2376 19.8024 97.098 19.6492 97.098 19.3404V16.8534H91.5713V19.3404C91.5713 19.6492 91.4318 19.8024 91.1506 19.8024H90.6728C90.3958 19.8024 90.2585 19.6492 90.2585 19.3404V13.2113C90.2585 12.9025 90.3958 12.7492 90.6728 12.7492H91.1506C91.4318 12.7492 91.5713 12.9025 91.5713 13.2113V15.637H97.098V13.2113C97.098 12.9025 97.2376 12.7492 97.5188 12.7492H97.984C98.265 12.7492 98.4046 12.9025 98.4046 13.2113V19.3404ZM108.881 19.2414C108.881 19.6232 108.669 19.8142 108.244 19.8142H103.151C102.214 19.8142 101.51 19.7105 101.039 19.5031C100.301 19.1754 99.9311 18.579 99.9311 17.7067V14.958C99.9311 13.5507 100.91 12.8459 102.868 12.8459H108.318C108.661 12.8459 108.832 13.0368 108.832 13.4188V13.572C108.832 13.9492 108.661 14.1377 108.318 14.1377H102.959C102.485 14.1377 102.14 14.1684 101.925 14.2273C101.512 14.3428 101.305 14.5738 101.305 14.9181V17.6455C101.305 18.2347 101.933 18.5295 103.189 18.5295H108.367C108.71 18.5295 108.881 18.7204 108.881 19.1023V19.2414ZM117.399 18.7298C117.638 18.8642 117.759 19.0504 117.759 19.2885C117.759 19.6397 117.562 19.8142 117.171 19.8142H116.737C116.657 19.8142 116.581 19.793 116.507 19.7529L111.807 17.1292V19.2414C111.807 19.6232 111.638 19.8142 111.299 19.8142H110.951C110.612 19.8142 110.443 19.6232 110.443 19.2414V13.3363C110.443 12.9591 110.612 12.7705 110.951 12.7705H111.299C111.638 12.7705 111.807 12.9591 111.807 13.3363V15.5474L116.446 12.9638C116.558 12.9237 116.634 12.9026 116.674 12.9026H117.071C117.458 12.9026 117.653 13.0769 117.653 13.4282C117.653 13.6686 117.537 13.8525 117.302 13.9822L113.086 16.3207L117.399 18.7298ZM127.979 17.7351C127.979 17.9189 127.994 18.5483 128.021 19.6209C128.025 19.7506 127.814 19.8142 127.385 19.8142C126.909 19.8142 126.685 19.7269 126.708 19.5526C126.725 19.4276 126.708 19.364 126.66 19.3592C126.651 19.3592 126.641 19.3615 126.628 19.3664C125.943 19.6657 125.281 19.8142 124.647 19.8142H122.596C120.361 19.8142 119.245 19.1211 119.245 17.7351V13.4188C119.245 13.0368 119.414 12.8459 119.752 12.8459H120.112C120.45 12.8459 120.619 13.0368 120.619 13.4188V17.7351C120.619 18.2654 121.279 18.5295 122.596 18.5295H124.647C125.241 18.5295 125.727 18.4258 126.101 18.2183C126.425 18.0391 126.586 17.8388 126.586 17.6171V13.4188C126.586 13.0368 126.755 12.8459 127.093 12.8459H127.465C127.808 12.8459 127.979 13.0368 127.979 13.4188V17.7351ZM138.286 16.4502C138.286 16.8746 138.157 17.0868 137.901 17.0868H131.063C131.063 18.0485 131.658 18.5295 132.848 18.5295H133.875C134.214 18.5295 134.383 18.7204 134.383 19.1023V19.2414C134.383 19.6232 134.214 19.8142 133.875 19.8142H132.996C132.116 19.8142 131.398 19.6845 130.839 19.4276C130.042 19.0598 129.645 18.454 129.645 17.6101V15.0476C129.645 14.2438 130.04 13.6474 130.829 13.2608C131.402 12.9803 132.106 12.8388 132.941 12.8388H135.51C136.205 12.8388 136.802 12.9709 137.301 13.2326C137.958 13.5791 138.286 14.0906 138.286 14.7718V16.4502ZM136.947 15.7548V14.8968C136.947 14.6352 136.683 14.4324 136.155 14.2886C135.783 14.1872 135.427 14.1377 135.089 14.1377H133.095C131.711 14.1377 131.019 14.4089 131.019 14.9533V15.7548H136.947ZM34.2027 26.9668C34.2027 27.0735 34.2114 27.4388 34.2273 28.0615C34.2298 28.1367 34.1071 28.1737 33.8579 28.1737C33.5818 28.1737 33.4517 28.123 33.4652 28.0218C33.475 27.9492 33.4652 27.9123 33.4369 27.9096C33.432 27.9096 33.4259 27.911 33.4186 27.9136C33.0209 28.0874 32.6368 28.1737 32.2685 28.1737H31.0781C29.7809 28.1737 29.1328 27.7714 29.1328 26.9668V24.4612C29.1328 24.2395 29.231 24.1288 29.4275 24.1288H29.636C29.8324 24.1288 29.9307 24.2395 29.9307 24.4612V26.9668C29.9307 27.2746 30.3135 27.428 31.0781 27.428H32.2685C32.6134 27.428 32.8957 27.3677 33.1129 27.2473C33.3007 27.1433 33.394 27.0269 33.394 26.8984V24.4612C33.394 24.2395 33.4921 24.1288 33.6886 24.1288H33.9045C34.1033 24.1288 34.2027 24.2395 34.2027 24.4612V26.9668ZM39.8323 27.8986C39.8323 28.0779 39.7513 28.1668 39.588 28.1668H39.318C39.1549 28.1668 39.0739 28.0779 39.0739 27.8986V26.455H35.8657V27.8986C35.8657 28.0779 35.7848 28.1668 35.6214 28.1668H35.3442C35.1833 28.1668 35.1036 28.0779 35.1036 27.8986V24.3409C35.1036 24.1616 35.1833 24.0727 35.3442 24.0727H35.6214C35.7848 24.0727 35.8657 24.1616 35.8657 24.3409V25.7488H39.0739V24.3409C39.0739 24.1616 39.1549 24.0727 39.318 24.0727H39.588C39.7513 24.0727 39.8323 24.1616 39.8323 24.3409V27.8986ZM43.4282 28.1627C43.4282 28.0957 43.4282 28.0163 43.4282 27.9219C43.4282 27.7837 43.4331 27.6126 43.4418 27.4087C42.1138 27.3772 41.4498 27.2076 41.4498 26.8997V25.3329C41.4498 25.1455 41.5983 25.0195 41.8953 24.9552L42.5544 24.9156C42.552 24.9319 42.6256 24.9442 42.7766 24.9512C43.2208 24.9757 43.4418 25.0756 43.4418 25.2522V27.4087C43.4418 27.4922 43.4393 27.6181 43.4357 27.7864C43.4307 27.9547 43.4282 28.0793 43.4282 28.1627L43.4319 28.1422L43.4357 28.9646C43.4357 29.1836 43.535 29.293 43.7326 29.293H43.9424C44.14 29.293 44.2394 29.1836 44.2394 28.9646V25.3521C44.2394 25.0606 44.5806 24.9156 45.2642 24.9156H45.2862C45.5759 24.9156 45.7833 24.9292 45.9087 24.9552C46.2056 25.0195 46.354 25.1591 46.354 25.3726V26.9394C46.354 27.0954 46.1871 27.2199 45.8545 27.3129C45.5587 27.395 45.2409 27.432 44.8973 27.421L44.2394 27.4005L44.2517 28.1422C44.3573 28.1613 44.5303 28.171 44.7697 28.171C45.3685 28.171 45.8717 28.0984 46.2792 27.9534C46.8683 27.7453 47.1629 27.4033 47.1629 26.927V25.3603C47.1629 24.5666 46.5357 24.1697 45.279 24.1697H45.2286C44.7905 24.1697 44.4014 24.204 44.064 24.2738C43.9854 24.2902 43.8909 24.2971 43.7841 24.2971C43.6417 24.2971 43.4357 24.2793 43.1656 24.2423C42.8563 24.1985 42.655 24.1752 42.5605 24.1697C41.2805 24.2601 40.6411 24.6446 40.6411 25.3206V26.8874C40.6411 27.7235 41.2155 28.1422 42.3629 28.1422H42.7937L43.4282 28.1627ZM52.9864 26.9189C52.9864 27.3869 52.7729 27.7303 52.3469 27.9493C52.0561 28.0984 51.6793 28.1737 51.2142 28.1737H49.8875C49.0309 28.1737 48.4651 27.9369 48.1865 27.4635C48.0858 27.2925 48.0355 27.1118 48.0355 26.9189V25.4273C48.0355 25.0989 48.173 24.8143 48.4491 24.5734C48.7866 24.2765 49.2652 24.1288 49.8838 24.1288H51.2142C52.396 24.1288 52.9864 24.5584 52.9864 25.4192V26.9189ZM52.1739 26.9189V25.3603C52.1739 25.0387 51.8462 24.8786 51.1921 24.8786H49.8936C49.6592 24.8786 49.4469 24.9101 49.2578 24.9744C48.9744 25.0716 48.8333 25.2221 48.8333 25.4273V26.9189C48.8333 27.116 48.9768 27.2582 49.2652 27.3431C49.4518 27.3992 49.6629 27.428 49.8973 27.428H51.1958C51.402 27.428 51.597 27.3964 51.7825 27.3321C52.0437 27.2404 52.1739 27.1037 52.1739 26.9189ZM58.984 26.8874C58.984 27.7235 58.4084 28.1422 57.2585 28.1422H54.766V28.9646C54.766 29.1836 54.6677 29.293 54.4713 29.293H54.2628C54.0663 29.293 53.9681 29.1836 53.9681 28.9646V25.3315C53.9681 24.8403 54.1756 24.5009 54.5904 24.3134C54.864 24.1903 55.2642 24.1288 55.7907 24.1288H57.0646C58.3446 24.1288 58.984 24.5255 58.984 25.3193V26.8874ZM58.1753 26.8997V25.3315C58.1753 25.118 58.0268 24.9785 57.7298 24.9142C57.6046 24.8881 57.385 24.8745 57.0707 24.8745H55.8263C55.1194 24.8745 54.766 25.0333 54.766 25.3521V27.4005H57.2585C57.8696 27.4005 58.1753 27.2336 58.1753 26.8997ZM65.0862 27.8986C65.0862 28.0779 65.0199 28.1668 64.8886 28.1668H64.6111C64.4774 28.1668 64.4099 28.0779 64.4099 27.8986V25.4397L62.7346 27.9657C62.6366 28.1121 62.5174 28.186 62.3751 28.186C62.2266 28.186 62.1064 28.1121 62.0131 27.9657L60.452 25.5081V27.8986C60.452 28.0779 60.3845 28.1668 60.2507 28.1668H59.9377C59.8065 28.1668 59.7401 28.0779 59.7401 27.8986V24.5147C59.7401 24.4078 59.7721 24.3162 59.8359 24.2382C59.8984 24.1602 59.9782 24.1219 60.0752 24.1219C60.312 24.1219 60.4765 24.1903 60.5673 24.3285L62.3825 27.1323L64.3314 24.3217C64.4173 24.1957 64.5646 24.1328 64.7731 24.1328C64.9819 24.1328 65.0862 24.2711 65.0862 24.5461V27.8986ZM71.0852 26.9585C71.0852 27.7686 70.5403 28.1737 69.4492 28.1737H67.4965C67.3087 28.1737 67.1026 28.1449 66.878 28.0861C66.1539 27.8959 65.7919 27.5347 65.7919 27.0038V26.4865C65.7919 26.0663 65.9882 25.7503 66.381 25.5368C66.6804 25.3739 67.0413 25.2918 67.4646 25.2918H70.2874C70.2469 25.0168 69.9338 24.8786 69.3486 24.8786H68.7459C68.5508 24.8786 68.4527 24.7691 68.4527 24.5502V24.4612C68.4527 24.2395 68.5508 24.1288 68.7471 24.1288H69.1866C70.4519 24.1288 71.0852 24.5433 71.0852 25.3712V26.9585ZM70.2874 27.0038V26.0417H67.45C67.2977 26.0417 67.1345 26.0718 66.9565 26.1334C66.7124 26.2196 66.5896 26.3359 66.5896 26.4824V26.9955C66.5896 27.1638 66.7319 27.2828 67.0179 27.3512C67.1162 27.3759 67.2683 27.4005 67.4745 27.428H69.4565C70.01 27.428 70.2874 27.287 70.2874 27.0038ZM77.0129 27.38H77.4695C77.5517 27.391 77.6327 27.3992 77.715 27.4047C77.8819 27.4128 77.9592 27.5059 77.9445 27.6852L77.9199 27.978C77.9126 28.0711 77.8291 28.1257 77.6683 28.1422H73.8281C72.6267 28.1422 72.0266 27.74 72.0266 26.9353V24.4612C72.0266 24.2395 72.1246 24.1288 72.3211 24.1288H72.5298C72.7261 24.1288 72.8243 24.2395 72.8243 24.4612V26.9353C72.8243 27.2459 73.1581 27.4005 73.827 27.4005H76.2116V24.4612C76.2116 24.2395 76.3109 24.1288 76.5097 24.1288H76.7184C76.9148 24.1288 77.0129 24.2395 77.0129 24.4612V27.38ZM83.3702 26.9668C83.3702 27.0735 83.379 27.4388 83.3948 28.0615C83.3973 28.1367 83.2746 28.1737 83.0254 28.1737C82.7493 28.1737 82.6192 28.123 82.6327 28.0218C82.6425 27.9492 82.6327 27.9123 82.6044 27.9096C82.5995 27.9096 82.5934 27.911 82.5861 27.9136C82.1885 28.0874 81.8043 28.1737 81.436 28.1737H80.2457C78.9484 28.1737 78.3004 27.7714 78.3004 26.9668V24.4612C78.3004 24.2395 78.3985 24.1288 78.595 24.1288H78.8036C78.9999 24.1288 79.0982 24.2395 79.0982 24.4612V26.9668C79.0982 27.2746 79.4811 27.428 80.2457 27.428H81.436C81.7809 27.428 82.0632 27.3677 82.2804 27.2473C82.4682 27.1433 82.5615 27.0269 82.5615 26.8984V24.4612C82.5615 24.2395 82.6596 24.1288 82.8561 24.1288H83.0721C83.2708 24.1288 83.3702 24.2395 83.3702 24.4612V26.9668ZM89.3066 26.9189C89.3066 27.3869 89.0931 27.7303 88.6672 27.9493C88.3763 28.0984 87.9996 28.1737 87.5345 28.1737H86.2077C85.3511 28.1737 84.7853 27.9369 84.5067 27.4635C84.4061 27.2925 84.3558 27.1118 84.3558 26.9189V25.4273C84.3558 25.0989 84.4932 24.8143 84.7693 24.5734C85.1068 24.2765 85.5856 24.1288 86.204 24.1288H87.5345C88.7163 24.1288 89.3066 24.5584 89.3066 25.4192V26.9189ZM88.4943 26.9189V25.3603C88.4943 25.0387 88.1665 24.8786 87.5123 24.8786H86.2138C85.9795 24.8786 85.7671 24.9101 85.5781 24.9744C85.2947 25.0716 85.1536 25.2221 85.1536 25.4273V26.9189C85.1536 27.116 85.2971 27.2582 85.5856 27.3431C85.7721 27.3992 85.9831 27.428 86.2176 27.428H87.5161C87.7223 27.428 87.9174 27.3964 88.1027 27.3321C88.3641 27.2404 88.4943 27.1037 88.4943 26.9189ZM94.9325 27.8986C94.9325 28.0779 94.8514 28.1668 94.6882 28.1668H94.4183C94.2551 28.1668 94.174 28.0779 94.174 27.8986V26.455H90.9659V27.8986C90.9659 28.0779 90.8849 28.1668 90.7217 28.1668H90.4443C90.2836 28.1668 90.2038 28.0779 90.2038 27.8986V24.3409C90.2038 24.1616 90.2836 24.0727 90.4443 24.0727H90.7217C90.8849 24.0727 90.9659 24.1616 90.9659 24.3409V25.7488H94.174V24.3409C94.174 24.1616 94.2551 24.0727 94.4183 24.0727H94.6882C94.8514 24.0727 94.9325 24.1616 94.9325 24.3409V27.8986ZM100.524 27.8986C100.524 28.0779 100.443 28.1668 100.28 28.1668H100.01C99.8465 28.1668 99.7655 28.0779 99.7655 27.8986V26.455H96.5574V27.8986C96.5574 28.0779 96.4764 28.1668 96.3132 28.1668H96.0358C95.875 28.1668 95.7952 28.0779 95.7952 27.8986V24.3409C95.7952 24.1616 95.875 24.0727 96.0358 24.0727H96.3132C96.4764 24.0727 96.5574 24.1616 96.5574 24.3409V25.7488H99.7655V24.3409C99.7655 24.1616 99.8465 24.0727 100.01 24.0727H100.28C100.443 24.0727 100.524 24.1616 100.524 24.3409V27.8986ZM105.374 27.1488C105.374 27.8275 104.885 28.1668 103.904 28.1668H102.947C102.743 28.1668 102.537 28.1381 102.328 28.0793C101.729 27.9096 101.43 27.6058 101.43 27.1638V24.3176C101.43 24.1383 101.506 24.0494 101.657 24.0494H101.894C102.045 24.0494 102.121 24.1383 102.121 24.3176V25.3193H103.904C104.885 25.3193 105.374 25.6544 105.374 26.3264V27.1488ZM104.72 27.0447V26.3783C104.72 26.1006 104.451 25.961 103.915 25.961H102.121V27.0804C102.121 27.2062 102.234 27.3088 102.458 27.3895C102.648 27.4566 102.836 27.4894 103.023 27.4894H103.908C104.207 27.4894 104.408 27.4663 104.511 27.421C104.65 27.3595 104.72 27.2335 104.72 27.0447ZM105.693 24.0206H106.01C106.053 24.0206 106.09 24.0494 106.122 24.1055C106.152 24.1616 106.168 24.215 106.168 24.2656V27.8973C106.168 27.9479 106.152 28.0012 106.122 28.0573C106.09 28.1134 106.053 28.1422 106.01 28.1422H105.693C105.65 28.1422 105.613 28.1134 105.584 28.0573C105.553 28.0012 105.539 27.9479 105.539 27.8973V24.2656C105.539 24.215 105.553 24.1616 105.584 24.1055C105.613 24.0494 105.65 24.0206 105.693 24.0206ZM112.121 26.221C112.121 26.4673 112.046 26.5904 111.897 26.5904H107.928C107.928 27.1488 108.273 27.428 108.964 27.428H109.56C109.757 27.428 109.855 27.5387 109.855 27.7604V27.8412C109.855 28.0628 109.757 28.1737 109.56 28.1737H109.05C108.539 28.1737 108.122 28.0984 107.798 27.9493C107.335 27.7358 107.105 27.3841 107.105 26.8942V25.4068C107.105 24.9402 107.334 24.5939 107.792 24.3695C108.125 24.2067 108.533 24.1246 109.018 24.1246H110.509C110.913 24.1246 111.259 24.2012 111.549 24.3532C111.93 24.5543 112.121 24.8513 112.121 25.2467V26.221ZM111.344 25.8173V25.3193C111.344 25.1673 111.19 25.0496 110.884 24.9662C110.667 24.9073 110.461 24.8786 110.265 24.8786H109.108C108.304 24.8786 107.902 25.036 107.902 25.3521V25.8173H111.344ZM122.195 27.8412C122.195 28.0628 122.073 28.1737 121.826 28.1737H118.869C118.326 28.1737 117.917 28.1134 117.643 27.993C117.215 27.8029 117 27.4566 117 26.9503V25.3548C117 24.5378 117.569 24.1288 118.705 24.1288H121.869C122.068 24.1288 122.167 24.2395 122.167 24.4612V24.5502C122.167 24.7691 122.068 24.8786 121.869 24.8786H118.758C118.483 24.8786 118.283 24.8964 118.158 24.9306C117.918 24.9976 117.798 25.1317 117.798 25.3315V26.9147C117.798 27.2568 118.163 27.428 118.891 27.428H121.897C122.096 27.428 122.195 27.5387 122.195 27.7604V27.8412ZM128.1 26.221C128.1 26.4673 128.025 26.5904 127.876 26.5904H123.908C123.908 27.1488 124.252 27.428 124.943 27.428H125.54C125.736 27.428 125.834 27.5387 125.834 27.7604V27.8412C125.834 28.0628 125.736 28.1737 125.54 28.1737H125.029C124.519 28.1737 124.101 28.0984 123.777 27.9493C123.315 27.7358 123.084 27.3841 123.084 26.8942V25.4068C123.084 24.9402 123.314 24.5939 123.771 24.3695C124.104 24.2067 124.512 24.1246 124.997 24.1246H126.488C126.892 24.1246 127.238 24.2012 127.528 24.3532C127.91 24.5543 128.1 24.8513 128.1 25.2467V26.221ZM127.323 25.8173V25.3193C127.323 25.1673 127.17 25.0496 126.863 24.9662C126.647 24.9073 126.441 24.8786 126.244 24.8786H125.087C124.283 24.8786 123.882 25.036 123.882 25.3521V25.8173H127.323ZM132.619 24.6254C132.619 24.7992 132.541 24.8868 132.388 24.8868H130.972V27.9068C130.972 28.0806 130.894 28.1668 130.741 28.1668H130.547C130.346 28.1668 130.245 28.0806 130.245 27.9068V24.8868H128.836C128.683 24.8868 128.606 24.7992 128.606 24.6254V24.3818C128.606 24.2108 128.683 24.1246 128.836 24.1246H132.388C132.541 24.1246 132.619 24.2108 132.619 24.3818V24.6254ZM138.24 26.9668C138.24 27.0735 138.248 27.4388 138.264 28.0615C138.267 28.1367 138.144 28.1737 137.895 28.1737C137.619 28.1737 137.489 28.123 137.502 28.0218C137.512 27.9492 137.502 27.9123 137.474 27.9096C137.469 27.9096 137.463 27.911 137.456 27.9136C137.058 28.0874 136.674 28.1737 136.305 28.1737H135.115C133.818 28.1737 133.17 27.7714 133.17 26.9668V24.4612C133.17 24.2395 133.268 24.1288 133.464 24.1288H133.673C133.869 24.1288 133.968 24.2395 133.968 24.4612V26.9668C133.968 27.2746 134.35 27.428 135.115 27.428H136.305C136.65 27.428 136.933 27.3677 137.15 27.2473C137.338 27.1433 137.431 27.0269 137.431 26.8984V24.4612C137.431 24.2395 137.529 24.1288 137.725 24.1288H137.941C138.14 24.1288 138.24 24.2395 138.24 24.4612V26.9668Z" fill="#2B2A29"/>
<path fill-rule="evenodd" clip-rule="evenodd" d="M0 0H22.6343V7.7068C21.0033 6.95145 19.1542 6.52514 17.1922 6.52514C10.6394 6.52514 5.32048 11.2873 5.32048 17.1559C5.32048 23.0246 10.6394 27.7875 17.1922 27.7875C19.1542 27.7875 21.0033 27.3593 22.6343 26.604V39.9998H0V0Z" fill="#2B2A29"/>
<path d="M12.0319 26.7531L11.1831 26.3257V39.9999H12.0319V26.7531Z" fill="#FEFEFE"/>
<path fill-rule="evenodd" clip-rule="evenodd" d="M11.7561 26.6074C13.3851 27.3604 15.2341 27.7875 17.1924 27.7875C19.1544 27.7875 21.0035 27.3594 22.6346 26.604V39.9998H11.7561V26.6074Z" fill="#00A0E3"/>
<path d="M17.364 11.2456H17.3644V11.2464C19.1865 11.2464 20.8358 11.9076 22.0293 12.9764C23.2225 14.0449 23.9608 15.5218 23.961 17.153H23.9619V17.1538V17.1542H23.961C23.9609 18.7858 23.2225 20.2628 22.029 21.3315C20.8357 22.4 19.1867 23.0611 17.3649 23.0614V23.062H17.364H17.3636V23.0614C15.5416 23.0613 13.8921 22.4 12.6987 21.3313C11.5055 20.2627 10.7672 18.7859 10.767 17.1547H10.7661V17.1538V17.1535H10.767C10.7671 15.5219 11.5055 14.0448 12.699 12.9762C13.8923 11.9076 15.5414 11.2465 17.3631 11.2464V11.2456H17.364ZM17.3644 11.6166V11.6174H17.364H17.3631V11.6166C17.2417 11.6166 17.1208 11.6198 17.001 11.6261C16.4375 11.7018 15.9417 11.9178 15.5169 12.241C16.0193 12.233 16.5542 12.2618 17.1018 12.3255C17.2522 12.0538 17.4086 11.816 17.5701 11.6197C17.5017 11.6177 17.4332 11.6166 17.3644 11.6166ZM21.7357 13.2393L21.7234 13.2285C21.7844 13.4124 21.8335 13.6004 21.8713 13.7917C22.1293 13.9382 22.3722 14.0944 22.596 14.2595C22.6229 14.2795 22.6495 14.2993 22.6758 14.3195C22.4126 13.925 22.0964 13.5624 21.7357 13.2393ZM21.0632 12.7176C20.6973 12.4725 20.3 12.2628 19.8778 12.0941C19.8624 12.3648 19.8393 12.6364 19.8095 12.9085C20.3623 13.0852 20.8956 13.2953 21.3876 13.5365C21.3438 13.3784 21.2912 13.2233 21.2291 13.0717C21.1802 12.9523 21.1249 12.8341 21.0632 12.7176ZM19.4713 11.9471C19.0269 11.8025 18.5589 11.7023 18.0738 11.6526C17.8841 11.8356 17.7003 12.0827 17.5246 12.3813L17.5474 12.3847C18.1657 12.4767 18.7947 12.6115 19.4067 12.7867C19.4361 12.506 19.4578 12.2259 19.4713 11.9471ZM23.5474 17.153C23.5474 16.7722 23.5043 16.4003 23.4222 16.041C23.4196 16.3401 23.3909 16.6372 23.3373 16.9308C23.4113 17.0047 23.4815 17.0797 23.5474 17.1559V17.1542H23.5467V17.1538V17.153H23.5474ZM21.7354 21.0685C22.0715 20.7675 22.3691 20.4318 22.6211 20.0684C22.5139 19.8715 22.3688 19.6804 22.1911 19.4959C22.1113 19.6037 22.0283 19.7099 21.9418 19.8144C21.5758 20.2555 21.1507 20.6645 20.6771 21.0315C20.8734 21.2046 21.0165 21.3844 21.0944 21.5687C21.3207 21.415 21.5349 21.2481 21.7354 21.0685ZM22.8609 19.69C23.1989 19.1041 23.4237 18.4574 23.5089 17.7732C23.4293 17.6446 23.3364 17.5188 23.2314 17.3962C23.0626 18.0137 22.7861 18.6102 22.4197 19.1684C22.5908 19.3361 22.7392 19.5101 22.8609 19.69ZM17.3649 22.691C17.6835 22.6909 17.9965 22.6693 18.3022 22.6275C18.2486 22.5618 18.1709 22.4939 18.0737 22.4249C17.9368 22.4715 17.7982 22.5153 17.658 22.5556C17.489 22.6042 17.3178 22.6482 17.1447 22.6874C17.2173 22.6896 17.2904 22.691 17.3636 22.691V22.6902H17.364H17.3649V22.691ZM18.7324 22.5544C19.4573 22.4075 20.1343 22.1465 20.7381 21.7934C20.701 21.6237 20.566 21.4467 20.3561 21.2686C19.7924 21.665 19.1685 22.0032 18.5002 22.2681C18.6022 22.36 18.6812 22.4556 18.7324 22.5544ZM12.9923 21.0683C13.1017 21.1661 13.2148 21.2601 13.332 21.3505C13.3902 21.3127 13.4556 21.2794 13.5276 21.2508C13.0298 20.7283 12.6283 20.1582 12.3222 19.5642C12.1559 19.6148 12.0154 19.6786 11.9058 19.7566C12.1948 20.2411 12.5621 20.683 12.9923 21.0683ZM13.6752 21.5971C13.8796 21.7334 14.0936 21.8585 14.3164 21.9718C14.1446 21.8349 13.9811 21.6931 13.8256 21.5469C13.7703 21.5613 13.7199 21.578 13.6752 21.5971ZM11.1937 17.5178C11.2426 18.1918 11.4264 18.833 11.7212 19.4201C11.8466 19.3434 11.9938 19.2791 12.1597 19.2266C12.1392 19.181 12.1194 19.1352 12.0999 19.0893C11.8442 18.4839 11.6834 17.8604 11.6169 17.2423C11.4498 17.3215 11.3076 17.4133 11.1937 17.5178ZM12.0666 14.2976C12.0109 14.3801 11.9576 14.4641 11.9066 14.5494C11.9278 14.5395 11.9491 14.5299 11.9709 14.5204C12.0011 14.4453 12.033 14.371 12.0666 14.2976ZM11.555 15.2529C11.3258 15.8139 11.1952 16.4171 11.1817 17.046C11.3038 16.9707 11.4391 16.9032 11.5868 16.8435C11.5693 16.4291 11.5947 16.0195 11.6622 15.6216C11.695 15.4288 11.7374 15.2385 11.79 15.052C11.7 15.1139 11.6214 15.1808 11.555 15.2529ZM15.443 22.068C15.4153 21.9 15.3925 21.7237 15.3745 21.5407C15.2466 21.5231 15.1206 21.5089 14.9978 21.4982C15.1353 21.6969 15.2837 21.8873 15.443 22.068ZM15.7979 21.6098C15.8211 21.8209 15.8512 22.0214 15.8884 22.2092C15.9979 22.0425 16.1066 21.872 16.2142 21.6981C16.0762 21.6655 15.9368 21.636 15.7979 21.6098ZM15.3446 21.1621C15.3142 20.6629 15.3153 20.1201 15.3441 19.5534L15.345 19.5395C14.8829 19.4738 14.4323 19.4309 14.0118 19.4156C14.1901 20.0106 14.4351 20.5834 14.7485 21.1102C14.9396 21.1185 15.1398 21.1362 15.3446 21.1621ZM15.756 19.6035C15.7281 20.1756 15.7292 20.7235 15.7637 21.2253C15.9513 21.258 16.1399 21.2968 16.3258 21.3407C16.3564 21.348 16.3869 21.3553 16.4175 21.3628L16.4448 21.3172C16.7094 20.8703 16.9653 20.4031 17.2089 19.9199L17.2111 19.9153C16.7339 19.7911 16.2418 19.6855 15.756 19.6035ZM15.368 19.1675C15.4197 18.447 15.5142 17.6966 15.6448 16.9551C14.9436 16.8695 14.2655 16.8336 13.6498 16.8532C13.6458 17.355 13.6854 17.8651 13.7697 18.37C13.8073 18.5956 13.8536 18.8198 13.909 19.0419C14.3671 19.0533 14.8612 19.097 15.368 19.1675ZM15.7122 16.5895C15.8476 15.8874 16.0147 15.1995 16.2069 14.5594C15.4351 14.4715 14.6922 14.4427 14.0266 14.4791C13.9721 14.6425 13.9233 14.8103 13.8804 14.9816V14.9824C13.7607 15.4604 13.687 15.9659 13.6605 16.4841C14.2986 16.465 14.9954 16.5021 15.7122 16.5895ZM16.3197 14.1979C16.5014 13.639 16.7027 13.1244 16.9192 12.6785C16.2728 12.6093 15.6507 12.5904 15.0902 12.6255C14.707 13.0299 14.3979 13.5339 14.1656 14.1032C14.8342 14.0766 15.5661 14.1099 16.3197 14.1979ZM17.3348 12.7296C17.1137 13.1663 16.9081 13.6827 16.7227 14.2499C16.8287 14.2648 16.9349 14.2808 17.0412 14.2979C17.7233 14.4071 18.4138 14.5585 19.0836 14.7489C19.201 14.2213 19.295 13.6914 19.3629 13.163C18.7456 12.9825 18.1079 12.844 17.4808 12.7507C17.432 12.7434 17.3834 12.7363 17.3348 12.7296ZM16.6098 14.6103C16.4183 15.2474 16.2518 15.9374 16.1172 16.6439C16.3341 16.6757 16.5524 16.7121 16.7705 16.7527C17.3166 16.8542 17.8643 16.9824 18.397 17.1349C18.6304 16.4716 18.8332 15.7953 18.9986 15.1141C18.3344 14.9239 17.6475 14.7726 16.9682 14.6639C16.8484 14.6447 16.7289 14.6269 16.6098 14.6103ZM16.0505 17.0098C15.9214 17.7526 15.8283 18.5066 15.7782 19.2299C16.314 19.3184 16.8569 19.4347 17.3801 19.5727C17.7051 18.9011 18.0049 18.2028 18.2698 17.4875C17.7517 17.3394 17.2185 17.2147 16.6861 17.1159C16.4736 17.0764 16.2614 17.0409 16.0505 17.0098ZM14.714 21.79C14.6402 21.6874 14.5693 21.5826 14.5012 21.4759C14.444 21.4761 14.3883 21.4774 14.334 21.4797C14.4558 21.5859 14.5825 21.6895 14.714 21.79ZM14.2826 21.1102C13.9846 20.5762 13.7515 20.0023 13.5817 19.4098C13.2707 19.4131 12.9841 19.4335 12.7319 19.4731C13.044 20.0631 13.456 20.6271 13.9693 21.1394C14.0056 21.1342 14.0427 21.1297 14.0804 21.1257C14.1454 21.1189 14.2129 21.1136 14.2826 21.1102ZM13.4845 19.0409C13.4354 18.8366 13.3938 18.6307 13.3592 18.4239C13.2735 17.9091 13.2323 17.3885 13.2352 16.8756C12.7798 16.911 12.3679 16.9812 12.0181 17.0889C12.0725 17.7133 12.2286 18.3456 12.4877 18.9586C12.5116 19.0153 12.5364 19.0716 12.5621 19.128C12.8392 19.0767 13.1498 19.0485 13.4845 19.0409ZM13.2448 16.5054C13.2708 15.9522 13.3487 15.4119 13.4766 14.901L13.4767 14.9011C13.5095 14.7701 13.5456 14.641 13.585 14.5141C13.0977 14.5656 12.6637 14.6572 12.3055 14.7916C12.2017 15.0767 12.124 15.3731 12.0725 15.6769C12.0155 16.0125 11.9904 16.3571 11.9975 16.706C12.3642 16.6049 12.7854 16.5389 13.2448 16.5054ZM13.7167 14.1309C13.9206 13.592 14.1879 13.1016 14.5175 12.6834C14.1634 12.7344 13.8449 12.8119 13.5741 12.9168L13.5314 12.9549C13.0943 13.3511 12.7495 13.8198 12.4985 14.3363C12.8595 14.2367 13.2703 14.1688 13.7167 14.1309ZM14.8867 12.2717C14.9243 12.235 14.9627 12.199 15.0016 12.1638C15.0783 12.0946 15.1572 12.0285 15.2388 11.966C14.9447 12.0659 14.6704 12.1867 14.4161 12.3264C14.5676 12.3038 14.7246 12.2855 14.8867 12.2717ZM16.6221 21.8039C16.517 21.9751 16.4104 22.1437 16.3025 22.3094L16.3313 22.2971C16.5747 22.1908 16.8135 22.0704 17.047 21.9374C16.9104 21.8901 16.7681 21.8455 16.6221 21.8039ZM17.5868 20.0724C17.3441 20.5541 17.0877 21.022 16.8218 21.4721C17.0435 21.5374 17.2574 21.6098 17.4568 21.6875C17.9864 21.343 18.4835 20.934 18.9364 20.4786C18.5321 20.3135 18.0829 20.1606 17.6107 20.0247L17.5868 20.0724ZM19.7634 13.287C19.6932 13.8137 19.5976 14.3416 19.4795 14.8668C20.1936 15.0892 20.8761 15.3562 21.4899 15.663C21.5728 15.1001 21.5773 14.5455 21.4922 14.0168C20.966 13.733 20.379 13.4887 19.7634 13.287ZM19.3934 15.2328C19.2266 15.9141 19.0231 16.5899 18.7898 17.2527C19.4782 17.4686 20.1333 17.7253 20.7189 18.017C21.0428 17.3755 21.2826 16.7116 21.4202 16.0534C20.809 15.7365 20.1193 15.4612 19.3934 15.2328ZM18.6627 17.6052C18.3989 18.3177 18.1011 19.0135 17.7785 19.6831C18.2908 19.8321 18.7784 20.0019 19.2151 20.1864C19.7291 19.6246 20.1777 19.0032 20.5409 18.3519C19.9738 18.0672 19.3353 17.8165 18.6627 17.6052ZM20.8983 18.5412C20.538 19.183 20.0974 19.7968 19.5939 20.3565C19.8825 20.4943 20.1408 20.6387 20.3595 20.7874C20.8287 20.4292 21.2492 20.0277 21.6092 19.5936C21.7101 19.4719 21.8061 19.3476 21.8974 19.221C21.8375 19.1701 21.7752 19.12 21.7106 19.0703C21.4689 18.8845 21.1959 18.7077 20.8983 18.5412ZM19.3226 20.6465C18.8796 21.1019 18.3941 21.5151 17.8764 21.8702C17.967 21.9144 18.0523 21.9598 18.1315 22.0062C18.8155 21.7544 19.4534 21.4226 20.0276 21.0278C19.8244 20.8967 19.5868 20.7691 19.3226 20.6465ZM17.5011 22.1136C17.4008 22.1752 17.2996 22.2346 17.1974 22.2915C17.3098 22.264 17.4212 22.2345 17.5315 22.2027C17.565 22.193 17.5983 22.1831 17.6317 22.1731C17.5893 22.1529 17.5458 22.1333 17.5011 22.1136ZM21.9427 14.2795C21.9926 14.7947 21.9672 15.3281 21.8754 15.8661C22.1277 16.0063 22.3657 16.1539 22.5861 16.3083C22.7205 16.4025 22.8485 16.4994 22.9697 16.5987C23.013 16.2523 23.0199 15.9017 22.9866 15.5501C22.9704 15.3801 22.9449 15.2099 22.9098 15.0401C22.7388 14.8671 22.5454 14.7023 22.3333 14.5457C22.2091 14.454 22.0786 14.3653 21.9427 14.2795ZM21.7966 16.2598C21.6465 16.9147 21.4017 17.5714 21.0782 18.2054C21.4092 18.3881 21.7124 18.5829 21.9799 18.7886C22.0266 18.8244 22.0721 18.8606 22.1167 18.8971C22.486 18.3152 22.7519 17.6912 22.8925 17.0472C22.7237 16.8924 22.5358 16.7434 22.3315 16.6003C22.1636 16.4826 21.9848 16.3691 21.7966 16.2598Z" fill="#2B2A29"/>
</svg>
