<svg width="30" height="29" viewBox="0 0 30 29" fill="none" xmlns="http://www.w3.org/2000/svg">
<path d="M22.8571 0.285714C22.8571 0.128571 22.7286 0 22.5714 0H7.42857C7.27143 0 7.14286 0.128571 7.14286 0.285714V5.57143H22.8571V0.285714ZM27.1429 7.85714H2.85714C1.27857 7.85714 0 9.13571 0 10.7143V22.4286C0 23.0607 0.510714 23.5714 1.14286 23.5714H7.14286V28.2857C7.14286 28.4429 7.27143 28.5714 7.42857 28.5714H22.5714C22.7286 28.5714 22.8571 28.4429 22.8571 28.2857V23.5714H28.8571C29.4893 23.5714 30 23.0607 30 22.4286V10.7143C30 9.13571 28.7214 7.85714 27.1429 7.85714ZM20.4286 26.1429H9.57143V16.2857H20.4286V26.1429ZM26.2857 13.2857C26.2857 13.4429 26.1571 13.5714 26 13.5714H24.5714C24.4143 13.5714 24.2857 13.4429 24.2857 13.2857V11.8571C24.2857 11.7 24.4143 11.5714 24.5714 11.5714H26C26.1571 11.5714 26.2857 11.7 26.2857 11.8571V13.2857Z" fill="#353030"/>
</svg>
