<svg width="29" height="28" viewBox="0 0 29 28" fill="none" xmlns="http://www.w3.org/2000/svg">
<path d="M28.2857 0H0.285714C0.128571 0 0 0.142857 0 0.31746V2.85714C0 3.03175 0.128571 3.1746 0.285714 3.1746H28.2857C28.4429 3.1746 28.5714 3.03175 28.5714 2.85714V0.31746C28.5714 0.142857 28.4429 0 28.2857 0ZM28.2857 24.7619H0.285714C0.128571 24.7619 0 24.9048 0 25.0794V27.6191C0 27.7937 0.128571 27.9365 0.285714 27.9365H28.2857C28.4429 27.9365 28.5714 27.7937 28.5714 27.6191V25.0794C28.5714 24.9048 28.4429 24.7619 28.2857 24.7619ZM28.2857 12.381H0.285714C0.128571 12.381 0 12.5238 0 12.6984V15.2381C0 15.4127 0.128571 15.5556 0.285714 15.5556H28.2857C28.4429 15.5556 28.5714 15.4127 28.5714 15.2381V12.6984C28.5714 12.5238 28.4429 12.381 28.2857 12.381Z" fill="#163BA4"/>
</svg>
