<svg width="13" height="12" viewBox="0 0 13 12" fill="none" xmlns="http://www.w3.org/2000/svg">
<path d="M6.80039 0.800027C6.80039 0.683387 6.74948 0.572558 6.66099 0.496567C6.5725 0.420576 6.45525 0.386995 6.33995 0.40462L0.73995 1.26062C0.544643 1.29047 0.400391 1.45845 0.400391 1.65603V10.344C0.400391 10.5416 0.544613 10.7095 0.739893 10.7394L6.33989 11.5962C6.4552 11.6139 6.57247 11.5803 6.66097 11.5043C6.74947 11.4283 6.80039 11.3175 6.80039 11.2008V6.00004H10.9382L10.1407 6.699C9.97468 6.84447 9.95786 7.09718 10.1031 7.26343C10.2483 7.42969 10.5006 7.44653 10.6666 7.30106L12.264 5.90106C12.3507 5.82511 12.4004 5.71538 12.4004 5.60003C12.4004 5.48469 12.3507 5.37495 12.264 5.299L10.6666 3.899C10.5006 3.75353 10.2483 3.77037 10.1031 3.93663C9.95786 4.10288 9.97468 4.35559 10.1407 4.50106L10.9382 5.20004L6.80039 5.20004V0.800027ZM4.80039 7.00002C4.46902 7.00002 4.20039 6.7314 4.20039 6.40002C4.20039 6.06865 4.46902 5.80002 4.80039 5.80002C5.13176 5.80002 5.40039 6.06865 5.40039 6.40002C5.40039 6.7314 5.13176 7.00002 4.80039 7.00002ZM8.00039 10.8H7.60039V6.80002H8.40039V10.4C8.40039 10.6209 8.2213 10.8 8.00039 10.8ZM7.60039 4.40002V1.20002H8.00039C8.2213 1.20002 8.40039 1.37911 8.40039 1.60002V4.40002H7.60039Z" fill="#FD2929"/>
</svg>
