<svg width="135" height="44" viewBox="0 0 135 44" fill="none" xmlns="http://www.w3.org/2000/svg">
<path d="M41.044 24.438C41.044 24.998 40.8993 25.4693 40.61 25.852C40.3207 26.2253 39.9287 26.51 39.434 26.706C38.9487 26.902 38.4167 27 37.838 27H33.036V17.06H38.356C38.8227 17.06 39.224 17.186 39.56 17.438C39.9053 17.6807 40.1667 17.998 40.344 18.39C40.5307 18.7727 40.624 19.174 40.624 19.594C40.624 20.07 40.5027 20.5227 40.26 20.952C40.0173 21.3813 39.6627 21.6987 39.196 21.904C39.7653 22.072 40.2133 22.3753 40.54 22.814C40.876 23.2527 41.044 23.794 41.044 24.438ZM39.098 24.074C39.098 23.822 39.0467 23.598 38.944 23.402C38.8413 23.1967 38.7013 23.038 38.524 22.926C38.356 22.8047 38.16 22.744 37.936 22.744H34.968V25.362H37.838C38.0713 25.362 38.2813 25.306 38.468 25.194C38.664 25.0727 38.818 24.914 38.93 24.718C39.042 24.522 39.098 24.3073 39.098 24.074ZM34.968 18.712V21.218H37.544C37.7587 21.218 37.9547 21.1667 38.132 21.064C38.3093 20.9613 38.4493 20.8167 38.552 20.63C38.664 20.4433 38.72 20.2193 38.72 19.958C38.72 19.706 38.6687 19.4867 38.566 19.3C38.4727 19.1133 38.342 18.9687 38.174 18.866C38.0153 18.7633 37.8333 18.712 37.628 18.712H34.968ZM42.3696 27V19.664H44.2456V21.974H45.5336C46.4203 21.974 47.097 22.198 47.5636 22.646C48.0303 23.094 48.2636 23.6867 48.2636 24.424C48.2636 24.9187 48.161 25.362 47.9556 25.754C47.7596 26.146 47.4703 26.454 47.0876 26.678C46.705 26.8927 46.229 27 45.6596 27H42.3696ZM44.2456 25.572H45.3656C45.627 25.572 45.837 25.5207 45.9956 25.418C46.1543 25.3153 46.271 25.18 46.3456 25.012C46.4296 24.844 46.4716 24.6527 46.4716 24.438C46.4716 24.2327 46.4343 24.0507 46.3596 23.892C46.285 23.724 46.1636 23.5933 45.9956 23.5C45.837 23.3973 45.6223 23.346 45.3516 23.346H44.2456V25.572ZM49.4116 27V19.678H51.2876V27H49.4116ZM53.0063 27V19.678H54.8823V24.494L58.1723 19.664H59.8803V27H58.0043V22.296L54.7563 27H53.0063ZM56.4503 18.978C55.7317 18.978 55.167 18.796 54.7563 18.432C54.3457 18.0587 54.1403 17.5827 54.1403 17.004H55.3023C55.3023 17.284 55.3957 17.5173 55.5823 17.704C55.769 17.8907 56.0583 17.984 56.4503 17.984C56.8423 17.984 57.1223 17.8953 57.2903 17.718C57.4677 17.5407 57.575 17.3027 57.6123 17.004H58.7743C58.7743 17.5827 58.569 18.0587 58.1583 18.432C57.7477 18.796 57.1783 18.978 56.4503 18.978ZM63.2863 27V21.302H60.9623V19.664H67.5003V21.302H65.1623V27H63.2863ZM68.5513 27V19.678H70.4273V24.494L73.7173 19.664H75.4253V27H73.5493V22.296L70.3013 27H68.5513Z" fill="#FD2929"/>
<path d="M95.8 16.8C95.8 16.6834 95.7491 16.5726 95.6606 16.4966C95.5721 16.4206 95.4549 16.387 95.3396 16.4046L89.7396 17.2606C89.5443 17.2905 89.4 17.4585 89.4 17.656V26.344C89.4 26.5416 89.5442 26.7095 89.7395 26.7394L95.3395 27.5962C95.4548 27.6139 95.5721 27.5803 95.6606 27.5043C95.7491 27.4283 95.8 27.3175 95.8 27.2008V22H99.9378L99.1403 22.699C98.9743 22.8445 98.9575 23.0972 99.1027 23.2634C99.248 23.4297 99.5003 23.4465 99.6662 23.3011L101.264 21.9011C101.35 21.8251 101.4 21.7154 101.4 21.6C101.4 21.4847 101.35 21.375 101.264 21.299L99.6662 19.899C99.5003 19.7535 99.248 19.7704 99.1027 19.9366C98.9575 20.1029 98.9743 20.3556 99.1403 20.5011L99.9378 21.2L95.8 21.2V16.8ZM93.8 23C93.4687 23 93.2 22.7314 93.2 22.4C93.2 22.0687 93.4687 21.8 93.8 21.8C94.1314 21.8 94.4 22.0687 94.4 22.4C94.4 22.7314 94.1314 23 93.8 23ZM97 26.8H96.6V22.8H97.4V26.4C97.4 26.6209 97.2209 26.8 97 26.8ZM96.6 20.4V17.2H97C97.2209 17.2 97.4 17.3791 97.4 17.6V20.4H96.6Z" fill="#FD2929"/>
<rect x="0.5" y="0.5" width="134" height="43" rx="9.5" stroke="#F41F13"/>
</svg>
