<svg width="24" height="24" viewBox="0 0 24 24" fill="none" xmlns="http://www.w3.org/2000/svg">
<path d="M13.8499 12L23.2249 0.825035C23.3821 0.639321 23.2499 0.357178 23.0071 0.357178H20.1571C19.9892 0.357178 19.8285 0.432178 19.7178 0.560749L11.9857 9.77861L4.25351 0.560749C4.14637 0.432178 3.98565 0.357178 3.81422 0.357178H0.964223C0.721366 0.357178 0.589223 0.639321 0.746366 0.825035L10.1214 12L0.746366 23.175C0.711164 23.2164 0.688581 23.2671 0.681297 23.3209C0.674013 23.3748 0.682333 23.4296 0.705271 23.4788C0.728209 23.5281 0.764801 23.5697 0.810702 23.5988C0.856603 23.6279 0.909885 23.6432 0.964223 23.6429H3.81422C3.98208 23.6429 4.1428 23.5679 4.25351 23.4393L11.9857 14.2215L19.7178 23.4393C19.8249 23.5679 19.9857 23.6429 20.1571 23.6429H23.0071C23.2499 23.6429 23.3821 23.3608 23.2249 23.175L13.8499 12Z" fill="white"/>
</svg>
