<svg width="32" height="32" viewBox="0 0 32 32" fill="none" xmlns="http://www.w3.org/2000/svg">
<path d="M29.1429 27.5714H2.85721C2.22507 27.5714 1.71436 28.0821 1.71436 28.7143V30C1.71436 30.1571 1.84293 30.2857 2.00007 30.2857H30.0001C30.1572 30.2857 30.2858 30.1571 30.2858 30V28.7143C30.2858 28.0821 29.7751 27.5714 29.1429 27.5714ZM6.91793 24.5714C6.98936 24.5714 7.06078 24.5643 7.13221 24.5536L13.1394 23.5C13.2108 23.4857 13.2786 23.4536 13.3286 23.4L28.4679 8.26072C28.501 8.22767 28.5273 8.18843 28.5452 8.14522C28.5631 8.10202 28.5724 8.0557 28.5724 8.00893C28.5724 7.96216 28.5631 7.91584 28.5452 7.87264C28.5273 7.82943 28.501 7.79019 28.4679 7.75714L22.5322 1.81786C22.4644 1.75 22.3751 1.71429 22.2786 1.71429C22.1822 1.71429 22.0929 1.75 22.0251 1.81786L6.88578 16.9571C6.83221 17.0107 6.80007 17.075 6.78578 17.1464L5.73221 23.1536C5.69747 23.3449 5.70988 23.5418 5.76838 23.7273C5.82688 23.9127 5.92969 24.0811 6.06793 24.2179C6.30364 24.4464 6.60007 24.5714 6.91793 24.5714Z" fill="#353030"/>
</svg>
